<svg width="122" height="22" viewBox="0 0 122 22" fill="none" xmlns="http://www.w3.org/2000/svg">
<path d="M9.91229 7.00049V10.3343V11.6668V15.0005H12.7444V11.6668V10.3343V7.00049H9.91229Z" fill="#FAB908"/>
<path d="M1.41627 11.625C2.19832 11.625 2.8323 11.0094 2.8323 10.25C2.8323 9.49061 2.19832 8.875 1.41627 8.875C0.634222 8.875 0.000244141 9.49061 0.000244141 10.25C0.000244141 11.0094 0.634222 11.625 1.41627 11.625Z" fill="#0066D9"/>
<path d="M1.41627 13.125C2.19832 13.125 2.8323 12.5094 2.8323 11.75C2.8323 10.9906 2.19832 10.375 1.41627 10.375C0.634222 10.375 0.000244141 10.9906 0.000244141 11.75C0.000244141 12.5094 0.634222 13.125 1.41627 13.125Z" fill="#0066D9"/>
<path d="M2.8323 10.2505H0.000244141V11.7505H2.8323V10.2505Z" fill="#0066D9"/>
<path d="M21.2404 13.125C22.0225 13.125 22.6564 12.5094 22.6564 11.75C22.6564 10.9906 22.0225 10.375 21.2404 10.375C20.4584 10.375 19.8244 10.9906 19.8244 11.75C19.8244 12.5094 20.4584 13.125 21.2404 13.125Z" fill="#4285F4"/>
<path d="M21.2404 11.625C22.0225 11.625 22.6564 11.0094 22.6564 10.25C22.6564 9.49061 22.0225 8.875 21.2404 8.875C20.4584 8.875 19.8244 9.49061 19.8244 10.25C19.8244 11.0094 20.4584 11.625 21.2404 11.625Z" fill="#4285F4"/>
<path d="M19.8244 11.7505H22.6564V10.2505H19.8244V11.7505Z" fill="#4285F4"/>
<path d="M6.30787 16.1255C7.08989 16.1255 7.72388 15.5099 7.72388 14.7505C7.72388 13.9911 7.08989 13.3755 6.30787 13.3755C5.52582 13.3755 4.89185 13.9911 4.89185 14.7505C4.89185 15.5099 5.52582 16.1255 6.30787 16.1255Z" fill="#EA4335"/>
<path d="M6.30787 17.6251C7.08989 17.6251 7.72388 17.0095 7.72388 16.2501C7.72388 15.4907 7.08989 14.875 6.30787 14.875C5.52582 14.875 4.89185 15.4907 4.89185 16.2501C4.89185 17.0095 5.52582 17.6251 6.30787 17.6251Z" fill="#EA4335"/>
<path d="M7.72388 14.7505H4.89185V16.2505H7.72388V14.7505Z" fill="#EA4335"/>
<path d="M6.30787 7.12499C7.08989 7.12499 7.72388 6.50938 7.72388 5.75001C7.72388 4.99061 7.08989 4.375 6.30787 4.375C5.52582 4.375 4.89185 4.99061 4.89185 5.75001C4.89185 6.50938 5.52582 7.12499 6.30787 7.12499Z" fill="#EA4335"/>
<path d="M6.30787 11.9995C7.08989 11.9995 7.72388 11.3839 7.72388 10.6245C7.72388 9.86512 7.08989 9.24951 6.30787 9.24951C5.52582 9.24951 4.89185 9.86512 4.89185 10.6245C4.89185 11.3839 5.52582 11.9995 6.30787 11.9995Z" fill="#EA4335"/>
<path d="M7.72388 5.75H4.89185V10.6563H7.72388V5.75Z" fill="#EA4335"/>
<path d="M16.3489 8.62551C17.131 8.62551 17.7649 8.0099 17.7649 7.2505C17.7649 6.4911 17.131 5.87549 16.3489 5.87549C15.5669 5.87549 14.9329 6.4911 14.9329 7.2505C14.9329 8.0099 15.5669 8.62551 16.3489 8.62551Z" fill="#34A853"/>
<path d="M16.3489 7.12499C17.131 7.12499 17.7649 6.50938 17.7649 5.75001C17.7649 4.99061 17.131 4.375 16.3489 4.375C15.5669 4.375 14.9329 4.99061 14.9329 5.75001C14.9329 6.50938 15.5669 7.12499 16.3489 7.12499Z" fill="#34A853"/>
<path d="M14.9327 7.25H17.7648V5.75H14.9327V7.25Z" fill="#34A853"/>
<path d="M11.3283 4.2505C12.1104 4.2505 12.7444 3.63489 12.7444 2.87549C12.7444 2.1161 12.1104 1.50049 11.3283 1.50049C10.5463 1.50049 9.91229 2.1161 9.91229 2.87549C9.91229 3.63489 10.5463 4.2505 11.3283 4.2505Z" fill="#FAB908"/>
<path d="M11.3283 2.75001C12.1104 2.75001 12.7444 2.1344 12.7444 1.37501C12.7444 0.615613 12.1104 0 11.3283 0C10.5463 0 9.91229 0.615613 9.91229 1.37501C9.91229 2.1344 10.5463 2.75001 11.3283 2.75001Z" fill="#FAB908"/>
<path d="M9.91241 2.87501H12.7445V1.375H9.91241V2.87501Z" fill="#FAB908"/>
<path d="M11.3283 22C12.1104 22 12.7444 21.3844 12.7444 20.625C12.7444 19.8656 12.1104 19.25 11.3283 19.25C10.5463 19.25 9.91229 19.8656 9.91229 20.625C9.91229 21.3844 10.5463 22 11.3283 22Z" fill="#FAB908"/>
<path d="M11.3283 20.5005C12.1104 20.5005 12.7444 19.8849 12.7444 19.1255C12.7444 18.3661 12.1104 17.7505 11.3283 17.7505C10.5463 17.7505 9.91229 18.3661 9.91229 19.1255C9.91229 19.8849 10.5463 20.5005 11.3283 20.5005Z" fill="#FAB908"/>
<path d="M9.91241 20.6255H12.7445V19.1255H9.91241V20.6255Z" fill="#FAB908"/>
<path d="M16.3489 17.6251C17.131 17.6251 17.7649 17.0095 17.7649 16.2501C17.7649 15.4907 17.131 14.875 16.3489 14.875C15.5669 14.875 14.9329 15.4907 14.9329 16.2501C14.9329 17.0095 15.5669 17.6251 16.3489 17.6251Z" fill="#34A853"/>
<path d="M16.3489 12.7505C17.131 12.7505 17.7649 12.1349 17.7649 11.3755C17.7649 10.6161 17.131 10.0005 16.3489 10.0005C15.5669 10.0005 14.9329 10.6161 14.9329 11.3755C14.9329 12.1349 15.5669 12.7505 16.3489 12.7505Z" fill="#34A853"/>
<path d="M14.9327 16.2506H17.7648V11.3755H14.9327V16.2506Z" fill="#34A853"/>
<path d="M11.3283 8.37553C12.1104 8.37553 12.7444 7.75986 12.7444 7.00052C12.7444 6.24113 12.1104 5.62549 11.3283 5.62549C10.5463 5.62549 9.91229 6.24113 9.91229 7.00052C9.91229 7.75986 10.5463 8.37553 11.3283 8.37553Z" fill="#FAB908"/>
<path d="M11.3283 16.3755C12.1104 16.3755 12.7444 15.7599 12.7444 15.0005C12.7444 14.2411 12.1104 13.6255 11.3283 13.6255C10.5463 13.6255 9.91229 14.2411 9.91229 15.0005C9.91229 15.7599 10.5463 16.3755 11.3283 16.3755Z" fill="#FAB908"/>
<path fill-rule="evenodd" clip-rule="evenodd" d="M74.8003 14.4508H73.6213V5.54053H76.7485C77.5258 5.54053 78.1986 5.79149 78.7667 6.29339C79.3348 6.79533 79.6189 7.42791 79.6189 8.19119C79.6189 8.95447 79.3348 9.58705 78.7667 10.089C78.1986 10.5909 77.5258 10.8419 76.7485 10.8419H74.8003V14.4508ZM74.8003 9.74679H76.7739C77.2696 9.74679 77.6669 9.58499 77.9659 9.26146C78.2648 8.93786 78.4146 8.58111 78.4146 8.19119C78.4146 7.80128 78.2648 7.44453 77.9659 7.12099C77.6669 6.7974 77.2696 6.63566 76.7739 6.63566H74.8003V9.74679ZM80.5967 9.08723C81.2033 8.46496 81.9762 8.15385 82.9163 8.15385C83.8564 8.15385 84.6294 8.4629 85.2359 9.08099C85.8424 9.69908 86.1457 10.4727 86.1457 11.4019C86.1457 12.3311 85.8424 13.1047 85.2359 13.7228C84.6294 14.3409 83.8564 14.6499 82.9163 14.6499C81.9762 14.6499 81.2033 14.3409 80.5967 13.7228C79.9902 13.1047 79.687 12.3311 79.687 11.4019C79.687 10.4727 79.9902 9.70114 80.5967 9.08723ZM81.4681 13.0072C81.8785 13.4055 82.3612 13.6046 82.9163 13.6046C83.4715 13.6046 83.9524 13.4034 84.3583 13.001C84.7637 12.5986 84.9667 12.0656 84.9667 11.4019C84.9667 10.7382 84.7637 10.2051 84.3583 9.80274C83.9524 9.4004 83.4715 9.1992 82.9163 9.1992C82.3612 9.1992 81.8803 9.4004 81.4743 9.80274C81.069 10.2051 80.866 10.7382 80.866 11.4019C80.866 12.0656 81.0665 12.6007 81.4681 13.0072ZM89.6993 14.6499C88.888 14.6499 88.1874 14.3388 87.5976 13.7166C87.0084 13.0943 86.7132 12.3228 86.7132 11.4019C86.7132 10.481 87.0084 9.70945 87.5976 9.08723C88.1874 8.46496 88.888 8.15385 89.6993 8.15385C90.1777 8.15385 90.6072 8.25345 90.9872 8.45253C91.3679 8.65167 91.6519 8.90052 91.8394 9.1992H91.8908L91.8394 8.35299V5.54053H93.019V14.4508H91.8908V13.6046H91.8394C91.6519 13.9032 91.3679 14.1521 90.9872 14.3513C90.6072 14.5503 90.1777 14.6499 89.6993 14.6499ZM89.8918 13.6046C90.447 13.6046 90.9192 13.4055 91.3078 13.0072C91.6965 12.609 91.8908 12.0739 91.8908 11.4019C91.8908 10.7299 91.6965 10.1948 91.3078 9.79656C90.9192 9.39834 90.447 9.1992 89.8918 9.1992C89.3447 9.1992 88.875 9.4004 88.482 9.80274C88.089 10.2051 87.8922 10.7382 87.8922 11.4019C87.8922 12.0656 88.089 12.5986 88.482 13.001C88.875 13.4034 89.3447 13.6046 89.8918 13.6046ZM97.1105 14.6499C96.171 14.6499 95.3974 14.3409 94.7909 13.7228C94.1844 13.1047 93.8812 12.3311 93.8812 11.4019C93.8812 10.4727 94.1844 9.69908 94.7909 9.08099C95.3974 8.4629 96.171 8.15385 97.1105 8.15385C97.8111 8.15385 98.3922 8.31977 98.8533 8.65167C99.315 8.98351 99.6523 9.40246 99.8658 9.90853L98.7896 10.3441C98.4646 9.58081 97.8798 9.1992 97.0338 9.1992C96.5127 9.1992 96.0535 9.40665 95.6561 9.82142C95.2588 10.2362 95.0601 10.763 95.0601 11.4019C95.0601 12.0407 95.2588 12.5675 95.6561 12.9823C96.0535 13.3971 96.5127 13.6046 97.0338 13.6046C97.9138 13.6046 98.5203 13.2229 98.8533 12.4597L99.9042 12.8952C99.6906 13.393 99.3472 13.8099 98.8725 14.1459C98.3984 14.4819 97.8111 14.6499 97.1105 14.6499ZM102.702 14.6499C102.036 14.6499 101.478 14.4632 101.029 14.0899C100.581 13.7166 100.357 13.2229 100.357 12.609C100.357 11.9453 100.621 11.4247 101.151 11.0472C101.681 10.6697 102.335 10.481 103.112 10.481C103.804 10.481 104.372 10.6054 104.816 10.8543V10.6801C104.816 10.2321 104.658 9.87331 104.342 9.60367C104.026 9.33402 103.637 9.1992 103.176 9.1992C102.834 9.1992 102.525 9.27801 102.247 9.43568C101.969 9.5933 101.779 9.80899 101.677 10.0828L100.6 9.63476C100.745 9.2697 101.032 8.93168 101.459 8.62057C101.886 8.30941 102.45 8.15385 103.15 8.15385C103.954 8.15385 104.62 8.38203 105.15 8.83832C105.68 9.29462 105.944 9.93757 105.944 10.7672V14.4508H104.816V13.6046H104.765C104.295 14.3015 103.608 14.6499 102.702 14.6499ZM102.894 13.6046C103.381 13.6046 103.823 13.4282 104.22 13.0757C104.618 12.7231 104.816 12.3062 104.816 11.825C104.483 11.5595 103.983 11.4268 103.317 11.4268C102.744 11.4268 102.313 11.5471 102.023 11.7877C101.732 12.0283 101.587 12.3103 101.587 12.6339C101.587 12.9325 101.719 13.169 101.984 13.3433C102.249 13.5175 102.552 13.6046 102.894 13.6046ZM109.395 14.6499C108.695 14.6499 108.116 14.484 107.659 14.1521C107.201 13.8203 106.866 13.4055 106.653 12.9077L107.703 12.4846C108.037 13.2478 108.605 13.6294 109.408 13.6294C109.775 13.6294 110.077 13.5506 110.311 13.393C110.547 13.2354 110.664 13.028 110.664 12.7708C110.664 12.3725 110.378 12.1029 109.805 11.9619L108.536 11.6632C108.135 11.5637 107.755 11.375 107.396 11.097C107.037 10.8191 106.858 10.4437 106.858 9.97079C106.858 9.4315 107.103 8.99388 107.594 8.65786C108.086 8.32189 108.669 8.15385 109.344 8.15385C109.899 8.15385 110.395 8.27625 110.831 8.52097C111.266 8.76576 111.578 9.11627 111.766 9.57257L110.741 9.98321C110.51 9.44393 110.032 9.17435 109.306 9.17435C108.955 9.17435 108.66 9.24485 108.421 9.38585C108.182 9.52692 108.062 9.71775 108.062 9.9583C108.062 10.3067 108.34 10.5432 108.895 10.6677L110.139 10.9539C110.728 11.0866 111.164 11.3148 111.446 11.6383C111.728 11.9619 111.868 12.3269 111.868 12.7335C111.868 13.281 111.638 13.7373 111.177 14.1024C110.715 14.4674 110.121 14.6499 109.395 14.6499ZM115.397 14.5503C114.739 14.5503 114.237 14.3803 113.891 14.0402C113.544 13.7 113.372 13.2188 113.372 12.5966V9.39834H112.27V8.35299H113.372V6.48629H114.551V8.35299H116.089V9.39834H114.551V12.5095C114.551 13.1732 114.833 13.505 115.397 13.505C115.61 13.505 115.79 13.4718 115.935 13.4055L116.345 14.3885C116.089 14.4965 115.772 14.5503 115.397 14.5503ZM119.527 14.6499C118.826 14.6499 118.247 14.484 117.791 14.1521C117.333 13.8203 116.998 13.4055 116.784 12.9077L117.835 12.4846C118.168 13.2478 118.736 13.6294 119.54 13.6294C119.907 13.6294 120.208 13.5506 120.443 13.393C120.678 13.2354 120.795 13.028 120.795 12.7708C120.795 12.3725 120.509 12.1029 119.937 11.9619L118.668 11.6632C118.267 11.5637 117.887 11.375 117.528 11.097C117.169 10.8191 116.989 10.4437 116.989 9.97079C116.989 9.4315 117.235 8.99388 117.726 8.65786C118.218 8.32189 118.801 8.15385 119.476 8.15385C120.031 8.15385 120.527 8.27625 120.962 8.52097C121.398 8.76576 121.71 9.11627 121.898 9.57257L120.873 9.98321C120.642 9.44393 120.163 9.17435 119.437 9.17435C119.087 9.17435 118.792 9.24485 118.553 9.38585C118.314 9.52692 118.194 9.71775 118.194 9.9583C118.194 10.3067 118.471 10.5432 119.027 10.6677L120.27 10.9539C120.86 11.0866 121.295 11.3148 121.578 11.6383C121.859 11.9619 122 12.3269 122 12.7335C122 13.281 121.769 13.7373 121.308 14.1024C120.847 14.4674 120.253 14.6499 119.527 14.6499Z" fill="#14142B"/>
<path d="M28.8453 9.54216C28.8453 6.72273 31.2783 4.43799 34.1818 4.43799C35.7838 4.43799 36.9252 5.05049 37.7863 5.84772L36.765 6.82967C36.1543 6.26577 35.3232 5.82828 34.1818 5.82828C32.0692 5.82828 30.4172 7.48104 30.4172 9.53246C30.4172 11.5839 32.0692 13.2366 34.1818 13.2366C35.5535 13.2366 36.3345 12.7019 36.8351 12.2158C37.2456 11.8172 37.5159 11.2436 37.616 10.4658H34.1818V9.0755H39.0177C39.0678 9.32829 39.0979 9.61993 39.0979 9.9505C39.0979 11.0005 38.8075 12.2936 37.8563 13.2075C36.9252 14.1408 35.7438 14.6366 34.1818 14.6366C31.2783 14.6366 28.8453 12.3519 28.8453 9.54216ZM42.9526 8.13248C44.8249 8.13248 46.3467 9.513 46.3467 11.4186C46.3467 13.3144 44.8249 14.7047 42.9526 14.7047C41.0803 14.7047 39.5584 13.3144 39.5584 11.4186C39.5584 9.513 41.0803 8.13248 42.9526 8.13248ZM42.9526 13.4019C43.9738 13.4019 44.8649 12.5853 44.8649 11.4089C44.8649 10.2228 43.9738 9.41582 42.9526 9.41582C41.9213 9.41582 41.0403 10.2228 41.0403 11.4089C41.0403 12.5853 41.9313 13.4019 42.9526 13.4019ZM50.3617 8.13248C52.2339 8.13248 53.7558 9.513 53.7558 11.4186C53.7558 13.3144 52.2339 14.7047 50.3617 14.7047C48.4894 14.7047 46.9675 13.3144 46.9675 11.4186C46.9675 9.513 48.4894 8.13248 50.3617 8.13248ZM50.3617 13.4019C51.3829 13.4019 52.274 12.5853 52.274 11.4089C52.274 10.2228 51.3929 9.41582 50.3617 9.41582C49.3304 9.41582 48.4493 10.2228 48.4493 11.4089C48.4493 12.5853 49.3404 13.4019 50.3617 13.4019ZM59.4528 8.23941H60.8746V14.1408C60.8746 16.5714 59.4027 17.563 57.6606 17.563C56.0186 17.563 55.0273 16.4936 54.6569 15.6186L55.9485 15.0936C56.1788 15.6283 56.7395 16.2603 57.6506 16.2603C58.762 16.2603 59.4528 15.5895 59.4528 14.3353V13.8589H59.4027C59.0723 14.2575 58.4315 14.6075 57.6205 14.6075C55.9285 14.6075 54.3766 13.1686 54.3766 11.3311C54.3766 9.47414 55.9285 8.03524 57.6205 8.03524C58.4315 8.03524 59.0723 8.38521 59.4027 8.77415H59.4528V8.23941ZM57.7507 13.3144C58.762 13.3144 59.5629 12.488 59.5529 11.3311C59.5529 10.1741 58.762 9.32829 57.7507 9.32829C56.7295 9.32829 55.8684 10.1741 55.8684 11.3311C55.8684 12.4783 56.7295 13.3144 57.7507 13.3144ZM61.8858 14.4811V4.82688H63.3675V14.4811H61.8858ZM67.4428 13.4019C68.2034 13.4019 68.7239 13.0422 69.1144 12.4977L70.2662 13.2463C69.8856 13.7811 68.9944 14.7047 67.4428 14.7047C65.52 14.7047 64.0885 13.2561 64.0885 11.4186C64.0885 9.46438 65.5404 8.13248 67.2825 8.13248C69.0346 8.13248 69.8955 9.48384 70.1758 10.2228L70.3262 10.5922L65.8003 12.4103C66.1512 13.0616 66.6816 13.4019 67.4428 13.4019ZM67.3327 9.39636C66.5714 9.39636 65.52 10.0477 65.5602 11.3116L68.5841 10.0964C68.4238 9.67831 67.9231 9.39636 67.3327 9.39636Z" fill="#14142B"/>
</svg>
