<svg width="81" height="22" viewBox="0 0 81 22" fill="none" xmlns="http://www.w3.org/2000/svg">
<path d="M11.2735 0C9.14271 0 7.05975 0.645131 5.28804 1.8538C3.5164 3.06253 2.13553 4.78051 1.32006 6.79046C0.504657 8.80048 0.29131 11.0122 0.707036 13.146C1.1227 15.2798 2.14876 17.2398 3.65548 18.7782C5.16219 20.3165 7.08188 21.3642 9.17173 21.7886C11.2616 22.2131 13.4278 21.9953 15.3963 21.1627C17.365 20.3301 19.0476 18.9202 20.2314 17.1113C21.4152 15.3023 22.047 13.1756 22.047 11C22.047 8.0826 20.912 5.28473 18.8916 3.22185C16.8711 1.1589 14.1309 0 11.2735 0ZM16.2174 15.8635C16.1716 15.9413 16.1111 16.0089 16.0394 16.0626C15.9677 16.1162 15.8863 16.1547 15.7999 16.176C15.7135 16.1972 15.6238 16.2007 15.5361 16.1862C15.4484 16.1718 15.3643 16.1397 15.2888 16.0918C12.761 14.5116 9.57968 14.1604 5.83088 15.0295C5.74558 15.0503 5.65714 15.0536 5.57059 15.0392C5.4841 15.0248 5.40118 14.9929 5.32684 14.9456C5.25245 14.8982 5.18801 14.8363 5.13725 14.7633C5.08648 14.6903 5.0505 14.6077 5.03126 14.5204C5.01077 14.4328 5.00751 14.3419 5.02148 14.2529C5.03552 14.164 5.06655 14.0788 5.11287 14.0021C5.15918 13.9254 5.21992 13.8589 5.29143 13.8062C5.363 13.7535 5.44404 13.7158 5.52991 13.6951C9.63126 12.7382 13.1565 13.1508 15.9939 14.9242C16.1453 15.0187 16.2539 15.1706 16.2957 15.3467C16.3377 15.5228 16.3095 15.7086 16.2174 15.8635ZM17.533 12.8699C17.4129 13.0586 17.2263 13.193 17.0119 13.2453C16.7974 13.2975 16.5716 13.2637 16.3808 13.1508C13.1116 11.2888 9.2522 10.8279 5.65031 11.8691C5.53825 11.9329 5.41358 11.9703 5.28554 11.9785C5.15743 11.9867 5.02919 11.9655 4.91017 11.9165C4.79115 11.8675 4.68442 11.792 4.59774 11.6954C4.51106 11.5988 4.44663 11.4836 4.40921 11.3583C4.37179 11.2329 4.36233 11.1007 4.38151 10.9711C4.40068 10.8415 4.448 10.7181 4.52002 10.6096C4.59203 10.5012 4.68693 10.4106 4.79767 10.3444C4.90848 10.2783 5.03233 10.2383 5.16019 10.2275C7.17063 9.63655 9.27645 9.46181 11.354 9.71363C13.4315 9.96538 15.4388 10.6385 17.2579 11.6936C17.4427 11.8162 17.5742 12.0067 17.6254 12.2256C17.6767 12.4446 17.6436 12.6752 17.533 12.8699ZM17.6448 9.75339C14.2055 7.64642 8.45334 7.45328 5.13443 8.48043C4.87903 8.55964 4.60325 8.53194 4.36784 8.40349C4.13244 8.27509 3.95663 8.05645 3.8791 7.79567C3.80157 7.53494 3.82865 7.25337 3.95444 7.01298C4.08016 6.77265 4.29433 6.59313 4.54973 6.51399C8.35876 5.3376 14.6784 5.56585 18.6766 7.98003C18.8821 8.13024 19.0247 8.35391 19.0761 8.60663C19.1275 8.85929 19.0838 9.12246 18.9537 9.34381C18.8237 9.5651 18.6168 9.72828 18.3743 9.8009C18.1317 9.87359 17.8713 9.85035 17.6448 9.73584V9.75339Z" fill="#1ED760"/>
<path d="M33.288 9.25783C31.2241 8.74865 30.8543 8.37999 30.8543 7.66011C30.8543 6.94023 31.4992 6.48372 32.4626 6.48372C33.4948 6.52323 34.4863 6.90892 35.2823 7.5811C35.2986 7.58956 35.3162 7.59395 35.3343 7.59395C35.3519 7.59395 35.3701 7.58956 35.3857 7.5811C35.4196 7.57445 35.4503 7.5558 35.4716 7.52843L36.4863 6.07111C36.5064 6.04483 36.5177 6.01236 36.5177 5.97893C36.5177 5.94549 36.5064 5.91302 36.4863 5.88674C35.3676 4.95178 33.9592 4.45382 32.5139 4.4821C30.2871 4.4821 28.7309 5.85163 28.7309 7.80058C28.7309 9.89871 30.0721 10.6449 32.3936 11.2156C34.371 11.6809 34.7063 12.0935 34.7063 12.7695C34.7063 13.4454 34.0269 14.016 32.9865 14.016C31.7568 14.0074 30.5785 13.5098 29.7023 12.629C29.6691 12.6176 29.6328 12.6176 29.5989 12.629C29.5638 12.6376 29.5312 12.6558 29.5043 12.6817L28.3523 14.0424C28.3285 14.0684 28.3147 14.103 28.3147 14.1389C28.3147 14.1749 28.3285 14.2094 28.3523 14.2355C29.6039 15.3802 31.2291 16.0064 32.9094 15.9913C35.308 15.9913 36.8649 14.6481 36.8649 12.5763C36.8304 10.8468 35.7981 9.88115 33.288 9.25783Z" fill="black"/>
<path d="M42.2645 7.17633C41.7675 7.17317 41.2768 7.28633 40.8299 7.50697C40.3824 7.72761 39.9907 8.04998 39.6848 8.44929V7.4836C39.6829 7.4479 39.6673 7.4144 39.6416 7.38993C39.6159 7.36547 39.582 7.35185 39.5476 7.35191H37.6817C37.6466 7.35185 37.6128 7.36547 37.5871 7.38993C37.5614 7.4144 37.5463 7.4479 37.5438 7.4836V18.1939C37.5438 18.2312 37.5582 18.2669 37.5839 18.2933C37.6103 18.3196 37.6447 18.3344 37.6817 18.3344H39.53C39.5664 18.3344 39.6015 18.3196 39.6272 18.2933C39.6528 18.2669 39.6679 18.2312 39.6679 18.1939V14.8316C39.9838 15.2141 40.3793 15.5204 40.8255 15.7284C41.2711 15.9363 41.7569 16.0408 42.247 16.0343C44.1818 16.0343 46.1423 14.5156 46.1423 11.6009C46.1423 8.68633 44.1987 7.17633 42.2645 7.17633ZM43.9837 11.5658C44.0163 11.8798 43.9843 12.1971 43.8903 12.4978C43.7963 12.7985 43.6421 13.076 43.4378 13.3128C43.2329 13.5495 42.9828 13.7404 42.7026 13.8735C42.4219 14.0064 42.1179 14.0786 41.8089 14.0854C41.4986 14.0756 41.194 14.0018 40.9126 13.8685C40.6312 13.7351 40.3793 13.545 40.1724 13.3095C39.965 13.0741 39.8064 12.7982 39.7061 12.4985C39.6065 12.1988 39.567 11.8815 39.5902 11.5658C39.5682 11.2508 39.6084 10.9345 39.7093 10.6358C39.8095 10.3372 39.9681 10.0623 40.1756 9.8278C40.3824 9.59335 40.6343 9.40402 40.9145 9.27117C41.1953 9.13839 41.4993 9.06486 41.8089 9.05505C42.1216 9.06054 42.43 9.13251 42.7139 9.26639C42.9978 9.40027 43.2517 9.59309 43.4585 9.83258C43.666 10.0721 43.822 10.3531 43.9167 10.6575C44.0113 10.962 44.0433 11.2832 44.0094 11.6009L43.9837 11.5658Z" fill="black"/>
<path d="M51.1806 7.17683C50.3213 7.19252 49.4858 7.46764 48.7795 7.96746C48.0731 8.46735 47.5278 9.16955 47.212 9.98555C46.8961 10.8015 46.824 11.6947 47.0045 12.5525C47.1856 13.4103 47.6112 14.1942 48.2273 14.8054C48.844 15.4166 49.6243 15.8277 50.4692 15.9867C51.3141 16.1459 52.1865 16.0459 52.9762 15.6994C53.7653 15.353 54.4372 14.7755 54.9054 14.0399C55.3742 13.3044 55.6186 12.4437 55.6086 11.5663C55.6004 10.9811 55.4801 10.4031 55.2532 9.86554C55.0257 9.32802 54.6973 8.84149 54.2861 8.43378C53.875 8.02601 53.3886 7.70512 52.8559 7.48945C52.3231 7.27379 51.7534 7.16754 51.1806 7.17683ZM51.1806 14.1386C50.8628 14.1343 50.5494 14.0645 50.2586 13.9333C49.9684 13.8022 49.7064 13.6125 49.4896 13.3754C49.2727 13.1385 49.1054 12.8591 48.997 12.5543C48.8885 12.2494 48.8415 11.9253 48.8591 11.6014C48.839 11.282 48.8835 10.9618 48.9888 10.6606C49.0947 10.3594 49.2602 10.0834 49.4745 9.84986C49.6889 9.61624 49.9477 9.42995 50.2348 9.30239C50.5225 9.17484 50.8327 9.10874 51.1461 9.10822C51.4645 9.11022 51.7797 9.17794 52.0718 9.30743C52.3645 9.43685 52.6284 9.62535 52.8477 9.86148C53.0665 10.0977 53.2369 10.3767 53.3479 10.6817C53.4588 10.9867 53.5083 11.3115 53.4933 11.6365C53.5133 11.9586 53.4682 12.2814 53.361 12.5849C53.2539 12.8884 53.0865 13.1661 52.8697 13.4007C52.6522 13.6354 52.3908 13.822 52.1 13.9489C51.8092 14.0759 51.4964 14.1404 51.1806 14.1386Z" fill="black"/>
<path d="M60.9311 7.35282H58.8935V5.22836C58.8935 5.19259 58.8803 5.15812 58.8559 5.13198C58.8321 5.1059 58.7995 5.09015 58.7644 5.08789H56.9155C56.8791 5.08789 56.844 5.10267 56.8183 5.12901C56.7926 5.15535 56.7782 5.19111 56.7782 5.22836V7.35282H55.8669C55.85 7.35282 55.8331 7.35624 55.8174 7.36289C55.8017 7.36947 55.7873 7.37922 55.7754 7.39142C55.7635 7.40362 55.7541 7.41815 55.7478 7.43416C55.7409 7.4501 55.7378 7.46727 55.7378 7.48451V9.10863C55.7378 9.14439 55.7509 9.17886 55.7748 9.20501C55.7992 9.23109 55.8318 9.24683 55.8669 9.24909H56.7268V13.4454C56.7268 15.1398 57.5861 16.0001 59.1856 16.0001C59.7872 16.0175 60.382 15.8656 60.9054 15.5612C60.9261 15.551 60.9442 15.5348 60.9561 15.5145C60.9687 15.4942 60.9743 15.4708 60.9743 15.447V13.9019C60.9743 13.878 60.9693 13.8544 60.9586 13.833C60.948 13.8116 60.9329 13.7931 60.9141 13.779C60.8935 13.7658 60.8696 13.7588 60.8452 13.7588C60.8208 13.7588 60.797 13.7658 60.7763 13.779C60.4403 13.9527 60.0693 14.0429 59.6926 14.0424C59.0997 14.0424 58.8333 13.7702 58.8333 13.1645V9.24909H60.8709C60.9072 9.24909 60.9424 9.23431 60.9681 9.20798C60.9938 9.18164 61.0082 9.14588 61.0082 9.10863V7.48451C61.0094 7.45727 61.0025 7.43035 60.9887 7.40692C60.9749 7.38355 60.9549 7.36476 60.9311 7.35282Z" fill="black"/>
<path d="M68.0239 7.36136V7.09799C68.0239 6.3255 68.3078 5.98312 68.9527 5.98312C69.3112 5.98731 69.6666 6.05567 70.0019 6.18504C70.0207 6.19375 70.0414 6.19827 70.0621 6.19827C70.0827 6.19827 70.1034 6.19375 70.1222 6.18504C70.1385 6.17142 70.1523 6.15399 70.1611 6.13417C70.1699 6.11435 70.1742 6.09273 70.1736 6.07091V4.46434C70.1749 4.43355 70.1667 4.40315 70.1498 4.37778C70.1323 4.35241 70.1078 4.3335 70.079 4.32388C69.5769 4.18903 69.0586 4.1299 68.5403 4.1483C66.8205 4.1483 65.9606 5.13155 65.9606 6.98393V7.3877H65.1007C65.0668 7.3877 65.0336 7.40158 65.0098 7.4263C64.9853 7.45103 64.9716 7.48446 64.9716 7.51939V9.15229C64.9716 9.18805 64.9847 9.22252 65.0092 9.24866C65.033 9.27474 65.0656 9.2905 65.1007 9.29275H65.9606V15.7716C65.9606 15.8065 65.9744 15.8401 65.9982 15.8647C66.0226 15.8894 66.0552 15.9033 66.0897 15.9033H67.9035C67.9386 15.9034 67.9725 15.8898 67.9982 15.8653C68.0239 15.8408 68.0389 15.8073 68.0414 15.7716V9.24886H69.7612L72.4092 15.719C72.1084 16.4037 71.8076 16.5354 71.4033 16.5354C71.0467 16.5255 70.6982 16.426 70.3886 16.2457C70.371 16.2371 70.3522 16.2327 70.3328 16.2327C70.3134 16.2327 70.2946 16.2371 70.277 16.2457C70.2595 16.2508 70.2438 16.2597 70.2307 16.2718C70.2169 16.284 70.2062 16.2991 70.1993 16.3159L69.6233 17.7117C69.6108 17.7435 69.6102 17.7789 69.6208 17.8112C69.6321 17.8435 69.654 17.8706 69.6835 17.8873C70.2846 18.2392 70.9683 18.4183 71.6609 18.4053C73.0197 18.4053 73.7762 17.7556 74.4468 16.0087L77.6539 7.54572C77.6646 7.52545 77.6702 7.50286 77.6702 7.47988C77.6702 7.45696 77.6646 7.43437 77.6539 7.41404C77.6408 7.397 77.6238 7.38338 77.6044 7.37427C77.585 7.36511 77.5637 7.36072 77.5424 7.36136H75.565C75.5374 7.36317 75.5111 7.37221 75.4885 7.38764C75.4659 7.403 75.4478 7.42424 75.4359 7.44915L73.4666 13.1994L71.3431 7.44915C71.3325 7.42301 71.3149 7.40061 71.2918 7.38499C71.2686 7.3693 71.2416 7.36111 71.214 7.36136H68.0239Z" fill="black"/>
<path d="M63.9142 7.35352H62.0659C61.99 7.35352 61.928 7.41639 61.928 7.49398V15.7286C61.928 15.8062 61.99 15.8691 62.0659 15.8691H63.9142C63.9906 15.8691 64.052 15.8062 64.052 15.7286V7.49398C64.052 7.41639 63.9906 7.35352 63.9142 7.35352Z" fill="black"/>
<path d="M62.9941 3.59573C62.7303 3.59399 62.4714 3.67235 62.2514 3.82076C62.0308 3.96923 61.8591 4.18115 61.7569 4.42961C61.6548 4.67814 61.6272 4.95197 61.6773 5.2165C61.7281 5.48103 61.8541 5.72433 62.0402 5.91553C62.2264 6.10667 62.4639 6.23713 62.7221 6.29038C62.981 6.34357 63.2492 6.31717 63.4937 6.21447C63.7375 6.1117 63.9462 5.93729 64.0928 5.71335C64.2401 5.48942 64.3185 5.22599 64.3185 4.95648C64.3191 4.77819 64.2859 4.60145 64.2201 4.43639C64.1536 4.27133 64.0565 4.12131 63.9336 3.99479C63.8102 3.86833 63.6641 3.76796 63.5031 3.69947C63.3414 3.63098 63.169 3.59573 62.9941 3.59573Z" fill="black"/>
<path d="M79.1933 9.99547C79.0222 9.99663 78.853 9.96312 78.695 9.89696C78.5371 9.83073 78.3936 9.73313 78.2726 9.60983C78.1516 9.48647 78.0564 9.33987 77.9912 9.17856C77.9266 9.01718 77.894 8.84425 77.8953 8.66989C77.8953 8.31596 78.0326 7.97654 78.2776 7.72628C78.5227 7.47607 78.8555 7.33548 79.2021 7.33548C79.3726 7.33432 79.5418 7.36782 79.7003 7.43398C79.8583 7.50021 80.0018 7.59782 80.1228 7.72111C80.2431 7.84447 80.339 7.99107 80.4036 8.15244C80.4687 8.31376 80.5013 8.4867 80.5001 8.66111C80.5001 9.01499 80.3628 9.3544 80.1178 9.60467C79.8721 9.85487 79.5399 9.99547 79.1933 9.99547ZM79.1933 7.46716C78.9595 7.46542 78.7308 7.53468 78.5358 7.66618C78.3409 7.79767 78.1886 7.98538 78.0984 8.20551C78.0081 8.42563 77.9837 8.66821 78.0288 8.90234C78.0739 9.13641 78.1867 9.35156 78.3516 9.5203C78.517 9.68904 78.7276 9.80375 78.957 9.84984C79.1864 9.89599 79.424 9.8714 79.6396 9.77928C79.8552 9.68717 80.0388 9.53166 80.1679 9.33258C80.2964 9.13344 80.3641 8.8997 80.3628 8.66111C80.3641 8.50471 80.3346 8.34965 80.277 8.20486C80.2187 8.06007 80.1334 7.92839 80.0256 7.81736C79.9178 7.70639 79.7893 7.61828 79.6483 7.55818C79.5067 7.49808 79.355 7.46716 79.2021 7.46716H79.1933ZM79.4854 8.80151L79.847 9.32826H79.5374L79.2102 8.84547H78.9269V9.32826H78.6599V7.93245H79.271C79.5888 7.93245 79.8038 8.09925 79.8038 8.3714C79.8056 8.46784 79.7762 8.56229 79.7204 8.64001C79.6646 8.71779 79.585 8.77453 79.4941 8.80151H79.4854ZM79.2622 8.16949H78.9269V8.60844H79.2622C79.434 8.60844 79.5374 8.52943 79.5374 8.38896C79.5374 8.2485 79.4427 8.16949 79.271 8.16949H79.2622Z" fill="black"/>
</svg>
